<?xml version="1.0" standalone="no"?>
<!DOCTYPE svg PUBLIC "-//W3C//DTD SVG 20010904//EN"
 "http://www.w3.org/TR/2001/REC-SVG-20010904/DTD/svg10.dtd">
<svg version="1.0" xmlns="http://www.w3.org/2000/svg"
 width="512.000000pt" height="512.000000pt" viewBox="0 0 512.000000 512.000000"
 preserveAspectRatio="xMidYMid meet">

<g transform="translate(0.000000,512.000000) scale(0.100000,-0.100000)"
fill="#000000" stroke="none">
<path d="M2415 4950 c-740 -43 -1432 -441 -1844 -1060 -242 -362 -377 -764
-399 -1187 -24 -433 52 -809 238 -1189 242 -495 609 -861 1105 -1105 302 -148
562 -215 920 -240 666 -45 1334 210 1820 696 481 481 737 1145 696 1805 -23
368 -90 627 -241 936 -430 878 -1322 1400 -2295 1344z m536 -863 c58 -39 79
-89 79 -189 l0 -88 351 0 c343 0 353 -1 387 -22 59 -36 72 -80 72 -251 0 -84
-5 -157 -10 -168 -11 -19 -35 -19 -1268 -19 -965 0 -1261 3 -1270 12 -8 8 -12
61 -12 170 0 180 11 218 73 257 33 20 46 21 381 21 l346 0 0 73 c1 110 27 166
95 208 28 18 57 19 386 19 354 0 356 0 390 -23z m709 -937 c0 -22 -27 -484
-60 -1028 -67 -1104 -59 -1045 -139 -1090 l-39 -22 -863 0 -864 0 -40 23 c-76
42 -69 -13 -135 1074 -32 538 -61 1002 -64 1031 l-5 52 1105 0 1104 0 0 -40z"/>
<path d="M2005 2745 l-25 -24 0 -525 c0 -369 3 -532 11 -550 17 -36 65 -54 98
-35 52 29 51 25 48 592 l-2 529 -24 19 c-32 26 -77 24 -106 -6z"/>
<path d="M2509 2751 l-24 -19 -3 -537 -3 -536 30 -30 c16 -16 39 -29 51 -29
12 0 35 13 51 29 l30 30 -3 536 -3 537 -24 19 c-13 10 -36 19 -51 19 -15 0
-38 -9 -51 -19z"/>
<path d="M3009 2751 l-24 -19 -2 -529 c-3 -567 -4 -563 48 -592 33 -19 81 -1
98 35 8 18 11 181 11 550 l0 525 -25 24 c-29 30 -74 32 -106 6z"/>
</g>
</svg>
